<?xml version="1.0" encoding="UTF-8"?>
<svg width="1024px" height="1024px" viewBox="0 0 1024 1024" version="1.1" xmlns="http://www.w3.org/2000/svg" xmlns:xlink="http://www.w3.org/1999/xlink">
    <!-- Generator: Sketch 51.2 (57519) - http://www.bohemiancoding.com/sketch -->
    <title>Centurion_Pig</title>
    <desc>Created with Sketch.</desc>
    <defs></defs>
    <g id="Centurion_Pig" stroke="none" stroke-width="1" fill="none" fill-rule="evenodd">
        <g id="Fill-1" transform="translate(230.400000, 25.600000)">
            <path d="M445.658152,859.37928 C445.658152,859.37928 484.606028,835.794293 491.796724,774.804164 C496.977341,730.86501 484.512777,697.910645 484.512777,697.910645 C484.512777,697.910645 542.147138,657.789029 559.160284,613.909322 C559.160284,613.909322 590.067843,544.769772 586.829958,517.630883 C583.592072,490.491994 555.746257,484.030354 555.746257,484.030354 C555.746257,484.030354 584.887226,404.55218 579.059033,295.996624 C573.230839,187.441069 562.869605,166.76382 553.803526,138.978767 C544.737447,111.193714 509.768284,36.2386876 426.878416,12.3306188 C343.988548,-11.57745 184.783015,-1.19230185 109.565641,155.779031 C101.064248,173.522696 98.55683,172.579296 100.499561,191.964217 C100.499561,191.964217 99.8519841,206.825989 140.001764,211.995301 C180.151544,217.164613 208.644936,260.457603 223.539209,303.104428 C223.539209,303.104428 200.752266,308.038537 181.446698,332.181809 C181.446698,332.181809 128.052671,335.939899 78.0493586,359.106172 C41.7850414,375.906436 24.948037,402.613688 28.2714026,424.645296 C31.1052,443.448669 53.8740106,452.582844 75.8916317,456.245301 L75.2492352,484.244881 L68.1207066,502.983637 L68.1207066,524.829151 L77.4095524,534.862785 C77.4095524,534.862785 50.6309445,582.32741 32.1827683,626.804172 C15.1722132,667.822664 -1.22443877,732.157338 0.0707154185,770.281016 C1.3658696,808.404693 20.1740987,871.082603 64.8569181,912.4371 C64.8569181,912.4371 124.576478,974.468846 213.55357,974.468846 C246.839033,974.468846 272.09972,970.591862 305.126152,957.668582 C305.126152,957.668582 414.574451,914.877016 445.658152,859.37928" fill="#000000"></path>
            <path d="M361.47313,547.355204 L408.746257,562.86314 C408.746257,562.86314 430.497077,604.295177 446.305729,641.695151 C486.455508,736.681262 483.069975,798.565683 454.076654,827.498323 C439.332619,842.210185 413.926874,842.652161 402.918063,842.652161 C428.17357,809.697796 446.305729,723.111817 398.385024,672.711024 C411.743244,612.61777 386.731226,579.053426 361.47313,547.355204" id="Fill-4" fill="#FDD800"></path>
            <path d="M101.147138,542.185892 C101.147138,542.185892 202.816742,513.754675 340.103085,542.185892 C359.051191,564.923111 400.70594,628.702085 378.957711,674.649516 C414.382768,695.003683 428.300495,754.786778 380.900442,858.160098 C380.900442,858.160098 408.09868,858.806262 418.809605,857.513934 C420.402645,864.621738 356.292513,923.422664 254.622909,952.500045 C254.622909,952.500045 198.115332,957.860622 157.965552,946.229669 C117.815773,934.598717 95.5520722,905.185331 85.6052881,899.514595 C72.0061692,891.760627 39.6273145,858.160098 27.1523894,807.405206 C23.3083718,791.760283 21.1040194,760.837458 23.0104863,741.020899 C30.1467859,666.939487 71.0037198,573.793651 101.147138,542.185892" id="Fill-6" fill="#F9C7A5"></path>
            <path d="M297.368178,625.864132 C297.368178,609.27064 285.698839,595.817505 272.112671,595.817505 C258.518733,595.817505 246.851984,609.27064 246.851984,625.864132 L246.851984,640.402823 C246.851984,644.202267 249.491508,652.990098 251.657006,657.40986 C256.073482,653.388135 263.582786,650.418365 272.107491,650.418365 C281.225376,650.418365 289.172442,653.289918 293.423138,657.789804 C295.855438,653.183947 297.362997,647.650198 297.362997,641.775275 C297.362997,641.775275 297.368178,625.972688 297.368178,625.864132" id="Fill-8" fill="#000000"></path>
            <path d="M119.711878,627.827954 C119.711878,611.92715 110.702786,598.719557 100.393359,598.719557 C90.081341,598.719557 81.0722485,612.084814 81.0722485,627.985618 L81.0722485,642.022885 L81.0722485,642.051316 L81.0722485,642.082332 C81.0722485,642.082332 82.740407,652.229692 84.3826626,656.465943 C87.7345216,652.614806 93.7543982,650.244676 100.224989,650.244676 C107.141112,650.244676 113.329359,652.899118 116.556883,657.210324 C118.401182,652.798316 119.582363,646.863946 119.621218,641.694634 C119.621218,641.694634 119.711878,627.928756 119.711878,627.827954" id="Fill-10" fill="#000000"></path>
            <path d="M137.113052,696.232945 C114.201774,696.232945 102.358885,701.658138 93.5984617,710.249535 C84.4676247,719.200199 78.9036423,731.813321 78.9036423,756.551064 C78.9036423,784.067313 90.795748,816.869183 147.448382,816.869183 C192.931607,816.869183 215.995713,796.574463 215.995713,756.551064 C215.995713,739.774061 201.824136,696.232945 137.113052,696.232945 M147.448382,827.207807 C97.3026026,827.207807 68.5424088,801.454294 68.5424088,756.551064 C68.5424088,728.654871 75.3834132,713.33303 86.6926996,702.529167 C97.3336863,692.358546 111.634779,685.894321 137.113052,685.894321 C202.588277,685.894321 226.356946,728.150863 226.356946,756.551064 C226.356946,802.115966 198.3324,827.207807 147.448382,827.207807" id="Fill-12" fill="#000000"></path>
            <path d="M169.088337,787.867016 C168.995085,790.004526 167.18187,791.663875 165.037094,791.573412 C162.892319,791.47778 161.231931,789.668521 161.322592,787.53101 L164.016513,725.558711 C164.109764,723.416031 165.92298,721.759267 168.067755,721.852315 C170.21253,721.945362 171.872918,723.754621 171.782257,725.892132 L169.088337,787.867016 Z" id="Fill-14" fill="#000000"></path>
            <path d="M119.718354,787.574174 C119.793473,789.7091 118.114953,791.505436 115.972768,791.58556 C113.825403,791.657931 112.027729,789.983074 111.950019,787.845563 L109.77416,725.847417 C109.699041,723.712492 111.377561,721.916156 113.522337,721.841201 C115.667112,721.766246 117.464786,723.443687 117.542495,725.578613 L119.718354,787.574174 Z" id="Fill-16" fill="#000000"></path>
            <path d="M409.393834,543.47822 L422.669165,521.508643 C422.669165,521.508643 351.759473,484.03113 228.396037,484.03113 C105.032601,484.03113 83.6625568,503.41605 83.6625568,503.41605 L83.6625568,521.508643 C83.6625568,521.508643 110.537006,508.585362 218.358592,508.585362 C343.340971,508.585362 409.393834,543.47822 409.393834,543.47822" id="Fill-18" fill="#FDD800"></path>
            <path d="M211.559033,329.489373 C211.559033,329.489373 314.77246,305.638167 387.645605,344.433854 C427.178892,365.480709 460.834768,404.9665 470.58987,476.706214 C470.58987,476.706214 446.417112,488.662833 433.571773,507.616116 C368.852918,489.091886 228.719826,448.277582 88.8431736,482.738802 L88.8431736,459.908534 C88.8431736,449.56991 91.6484775,441.384304 108.485482,435.783354 C108.485482,435.783354 251.923808,399.169116 388.78016,452.583619 C390.507896,426.737058 416.517182,339.290389 211.559033,329.489373" id="Fill-20" fill="#FDD800"></path>
            <path d="M87.5480194,434.922664 C87.5480194,434.922664 87.5298872,410.464063 207.152918,403.880944 C269.302187,400.461444 310.337852,408.417016 377.232566,434.922664 C377.232566,434.922664 381.773376,370.634513 286.139191,358.243672 C237.785905,351.98105 137.626451,348.336685 90.1383278,372.890918 C38.5186626,399.580077 35.3092705,436.64663 87.5480194,434.922664" id="Fill-22" fill="#FDD800"></path>
            <path d="M422.669165,552.201434 C422.669165,552.201434 449.543614,505.03146 462.171367,505.03146 C483.217623,505.03146 504.243156,585.574513 519.158152,586.125045 C536.642733,586.771209 560.926874,550.262942 560.926874,550.262942 C560.926874,550.262942 544.08987,643.310561 479.655949,682.080402 C477.389429,672.711024 437.563438,572.232519 422.669165,552.201434" id="Fill-24" fill="#F9C7A5"></path>
            <path d="M469.942293,497.923656 C469.942293,497.923656 506.854187,476.600243 529.195596,506.969952 C538.585464,495.339 576.341799,507.77895 563.517182,526.964852 C550.692566,546.153339 535.347579,575.786421 523.043614,574.817175 C510.739649,573.847929 502.644936,506.64687 469.942293,497.923656" id="Fill-26" fill="#F9C7A5"></path>
            <path d="M294.610795,261.104542 C336.433914,139.625706 451.166442,191.727204 460.983711,272.520968 C468.000856,330.244093 460.229931,392.275839 460.229931,392.275839 C444.364293,361.691603 394.930848,325.506418 394.930848,325.506418 C421.724997,219.638905 399.248892,245.811132 399.248892,245.811132 L383.707041,322.234243 C370.7555,310.779048 339.239218,309.566844 339.239218,309.566844 L343.987253,256.581394 L377.267535,234.18018 C377.267535,234.18018 364.279729,227.935651 343.987253,239.134966 C323.697367,250.33428 298.656856,309.566844 298.656856,309.566844 L251.601315,309.566844 L231.093843,262.828508 L294.610795,261.104542 Z" id="Fill-28" fill="#FDD800"></path>
            <path d="M220.9489,244.950442 L283.116301,244.950442 C283.116301,244.950442 323.690892,128.958831 422.669165,182.272532 C495.845376,221.688537 487.103085,349.305931 476.148671,413.955934 C476.148671,413.955934 479.238909,425.56104 483.313464,442.811034 C485.647332,452.674082 486.55394,469.466593 491.799315,473.77263 C498.466768,479.246931 523.367403,485.364812 529.195596,484.072484 C529.195596,484.072484 621.294011,199.587143 482.570046,69.2145053 C427.119315,17.1000847 331.790786,15.6759392 258.508372,45.2960979 C184.593922,75.1721376 132.919861,137.162529 123.164759,185.508521 C123.164759,185.508521 163.962116,175.164728 220.9489,244.950442" id="Fill-30" fill="#DB6562"></path>
            <path d="M92.3090062,869.170733 C95.2386449,868.617616 98.1501515,868.023146 101.035755,867.38732 C102.483737,867.0875 103.916178,866.728233 105.343438,866.358627 C106.770698,865.983852 108.203138,865.678862 109.612266,865.265317 C111.023984,864.864696 112.448654,864.53386 113.837059,864.076376 L118.002275,862.755616 L122.100143,861.323717 C123.478187,860.881741 124.796654,860.305362 126.122892,859.76 C127.441359,859.19913 128.79609,858.718384 130.052389,858.051542 L133.880865,856.198344 L137.543561,854.130619 C138.799861,853.494794 139.895561,852.649611 141.048248,851.892307 C142.175033,851.106571 143.389887,850.416468 144.381975,849.491161 L147.513658,846.903921 L149.96409,844.872381 L152.792707,846.084585 C157.115931,847.935198 161.345905,849.602302 165.625094,851.26682 C167.767279,852.065479 169.901693,852.892569 172.067191,853.605934 C174.217147,854.381331 176.372284,855.133466 178.550733,855.789968 C180.721411,856.487825 182.89468,857.165005 185.086081,857.759476 C187.269711,858.392717 189.458522,859.01045 191.670645,859.49378 C193.872407,860.023635 196.071579,860.628444 198.299244,860.99805 C200.524319,861.362487 202.733852,861.972466 204.971878,862.220593 L211.685958,863.153653 L218.438892,863.714524 L225.207367,863.786894 C227.484248,863.908373 229.704143,863.549106 231.981024,863.456058 C234.270856,863.399196 236.475209,862.939127 238.733958,862.605706 L242.129852,862.083606 C243.261817,861.887172 244.334204,861.509812 245.448037,861.228085 L248.799896,860.36481 L250.493958,859.935757 C251.043103,859.754831 251.571526,859.522212 252.1129,859.318024 C254.273218,858.488349 256.469799,857.666429 258.725958,856.86777 C256.837623,858.260899 254.897482,859.633352 252.918486,860.995466 C252.421147,861.323717 251.931579,861.682984 251.418698,861.990558 L249.828248,862.80731 L246.611085,864.438228 C245.517975,864.939651 244.453359,865.547045 243.323984,865.968344 L239.909958,867.172794 C237.627896,868.010222 235.31216,868.795958 232.926486,869.219841 C230.551174,869.677325 228.175861,870.398444 225.759103,870.631063 C223.350116,870.925714 220.917817,871.18418 218.488107,871.378029 L211.186028,871.540862 C208.753729,871.533108 206.336971,871.318582 203.907262,871.179011 C201.469781,871.070455 199.089288,870.649156 196.677711,870.35709 C194.258363,870.083116 191.901182,869.571354 189.520689,869.129378 C187.132425,868.70291 184.793376,868.116193 182.456918,867.519138 C180.099737,866.97636 177.784002,866.309519 175.491579,865.58323 C170.867878,864.22887 166.34779,862.592783 161.887279,860.835217 C158.918786,859.679014 155.405494,858.194859 151.347404,856.382752 C148.763944,858.150058 147.016319,859.314578 146.10453,859.87631 C144.729077,860.69823 143.356213,861.538243 141.90305,862.168899 L137.603138,864.182347 L133.191843,865.815849 C131.7335,866.397397 130.22335,866.769587 128.736513,867.224487 C127.247085,867.661294 125.765429,868.121362 124.255279,868.444444 C122.75031,868.78045 121.260883,869.178487 119.748143,869.462799 L115.204742,870.209765 C113.697182,870.470815 112.1689,870.600048 110.658751,870.801651 C107.635861,871.191934 104.589658,871.357352 101.556407,871.460738 C98.5257463,871.59514 95.4924952,871.592556 92.4696053,871.44523 C89.451896,871.344429 86.4315965,871.088548 83.4475612,870.651741 C86.4290062,870.220103 89.3793674,869.705757 92.3090062,869.170733 Z" id="Fill-32" fill="#000000"></path>
            <path d="M220.9489,764.466315 L246.851984,764.466315 C246.851984,764.466315 246.538557,827.022746 140.623438,827.022746 C195.908389,817.020127 215.361605,802.602915 220.9489,764.466315" id="Fill-35" fill="#000000" opacity="0.2"></path>
            <path d="M328.016707,532.745952 C328.016707,532.745952 355.349641,570.086479 367.912636,609.662733 C375.450433,633.407968 372.699526,657.957031 369.461641,675.726542 C391.911843,692.095169 397.09246,719.663111 397.955033,752.402949 C398.817605,785.142788 381.944337,834.794031 370.324213,852.343846 C347.503596,886.805066 302.973605,931.60491 246.851984,954.006124 C190.730363,976.407338 432.489024,924.716801 441.125112,848.8985 L396.227297,847.174534 C396.227297,847.174534 452.351508,747.233637 391.04668,674.863267 C402.270486,637.817391 388.502997,577.028865 353.054627,543.477444 C339.30527,530.466285 328.016707,532.745952 328.016707,532.745952" id="Fill-37" fill="#000000" opacity="0.2"></path>
            <path d="M472.208812,669.69473 C472.208812,669.69473 539.55683,619.728159 543.874874,564.587106 C531.785905,574.062455 518.834363,576.647111 518.834363,576.647111 C518.834363,576.647111 557.688989,518.926571 559.416724,505.140016 C574.958574,510.309328 576.68631,526.677955 576.68631,526.677955 L558.554152,599.048325 L531.785905,652.465413 L476.526856,695.541291 L472.208812,669.69473 Z" id="Fill-39" fill="#000000" opacity="0.2"></path>
            <path d="M413.496883,552.524516 L429.038733,528.401921 L453.556002,498.246738 L477.389429,482.738802 L540.421993,493.077426 C540.421993,493.077426 566.325077,404.338429 571.505693,344.891339 C576.68631,285.444249 550.783226,185.503352 550.783226,185.503352 L467.893359,281.996317 L472.208812,359.536 L464.437887,428.461024 C464.437887,428.461024 432.059033,371.813116 424.288107,360.613802 C427.673641,343.725659 434.628619,311.921466 427.740989,284.151921 C422.329834,262.337423 408.057235,246.100614 406.277693,244.218984 C402.229041,239.938794 378.957711,234.611817 378.957711,234.611817 L362.553288,314.736156 C362.553288,314.736156 353.91979,322.490124 358.235244,333.689439 C373.777094,352.645307 411.769147,398.305841 403.998222,435.354302 C396.227297,472.400177 334.922469,489.632079 334.922469,489.632079 L374.642257,498.246738 L334.922469,528.401921 L396.227297,552.524516 L441.125112,683.481286 C441.125112,683.481286 465.30305,785.146148 434.21935,837.69996 C403.135649,890.253772 427.310997,842.869272 427.310997,842.869272 C427.310997,842.869272 454.076654,844.590653 460.985006,839.421341 C467.893359,834.252029 491.206134,803.236156 491.206134,789.452185 C491.206134,775.668214 492.068707,724.835783 484.297781,710.188537 C476.526856,695.541291 451.488936,631.790749 444.580583,618.004193 C437.672231,604.217638 413.496883,552.524516 413.496883,552.524516" id="Fill-41" fill="#000000" opacity="0.2"></path>
            <path d="M179.503967,349.198668 C179.503967,349.198668 309.881958,376.769194 378.957711,431.907663 C388.456372,415.539036 358.45283,320.751943 179.503967,352.644015" id="Fill-43" fill="#000000" opacity="0.2"></path>
        </g>
    </g>
</svg>